<?xml version="1.0" encoding="UTF-8" standalone="no"?>
<svg
   version="1.0"
   width="24pt"
   height="24pt"
   viewBox="0 0 24 24"
   preserveAspectRatio="xMidYMid"
   id="svg9411"
   sodipodi:docname="g9959.svg"
   inkscape:export-filename="g9959.svg"
   inkscape:export-xdpi="96"
   inkscape:export-ydpi="96"
   xmlns:inkscape="http://www.inkscape.org/namespaces/inkscape"
   xmlns:sodipodi="http://sodipodi.sourceforge.net/DTD/sodipodi-0.dtd"
   xmlns="http://www.w3.org/2000/svg"
   xmlns:svg="http://www.w3.org/2000/svg">
  <sodipodi:namedview
     id="namedview156"
     pagecolor="#ffffff"
     bordercolor="#000000"
     borderopacity="0.25"
     inkscape:showpageshadow="2"
     inkscape:pageopacity="0.0"
     inkscape:pagecheckerboard="0"
     inkscape:deskcolor="#d1d1d1"
     inkscape:document-units="pt"
     showgrid="false" />
  <defs
     id="defs9415" />
  <g
     id="g9959"
     transform="matrix(0.04233845,0,0,0.05130006,-9.9724956,-16.451381)">
    <path
       d="m 372,494.6 c -5.5,6.2 -10,11.5 -10,11.9 0,0.3 3,0.5 6.8,0.3 l 6.7,-0.3 5.3,-10 c 2.9,-5.5 5.6,-10.5 5.8,-11.1 0.3,-0.6 -0.6,-1.4 -2,-1.6 -2.2,-0.4 -3.9,1 -12.6,10.8 z"
       id="path9353"
       style="fill:#000000;stroke:none;stroke-width:0.1" />
    <path
       d="m 397.4,483.8 c -1.2,0.7 -11.4,20.5 -11.4,22 0,0.5 18.4,0.9 42.3,0.8 l 42.4,-0.1 1.7,-10 c 0.9,-5.5 1.6,-10.8 1.6,-11.8 0,-1.6 -2.3,-1.7 -37.8,-1.7 -20.7,0.1 -38.2,0.4 -38.8,0.8 z"
       id="path9355"
       style="fill:#000000;stroke:none;stroke-width:0.1" />
    <path
       d="m 483.5,486.2 c -1.9,10.2 -3.1,19.8 -2.7,20.3 0.3,0.3 17.3,0.5 37.9,0.5 32.1,0 37.3,-0.2 37.3,-1.5 0,-0.8 -0.9,-6.1 -2,-11.7 -1.1,-5.7 -2,-10.4 -2,-10.6 0,-0.1 -15.3,-0.2 -34,-0.2 h -33.9 z"
       id="path9357"
       style="fill:#000000;stroke:none;stroke-width:0.1" />
    <path
       d="m 562,484.9 c 0,1 0.9,6.3 2,11.6 1.1,5.3 2,9.8 2,9.9 0,0.1 19.1,0.2 42.5,0.3 23.4,0.1 42.5,0 42.5,-0.3 0,-0.2 -2.6,-5.6 -5.7,-11.9 L 639.5,483 h -38.7 c -37.4,0 -38.8,0.1 -38.8,1.9 z"
       id="path9359"
       style="fill:#000000;stroke:none;stroke-width:0.1" />
    <path
       d="m 650,483.7 c 0.1,0.5 2.6,5.7 5.8,11.8 l 5.7,11 6.3,0.3 c 3.4,0.2 6.2,-0.1 6.2,-0.5 0,-0.7 -6.5,-8.4 -16.1,-19.1 -3.3,-3.6 -8,-5.7 -7.9,-3.5 z"
       id="path9361"
       style="fill:#000000;stroke:none;stroke-width:0.1" />
    <path
       d="m 350.7,519.5 c -2.1,2.2 -7.4,8.2 -11.8,13.2 l -8,9.3 H 344 c 7.1,0 13,-0.4 13,-0.9 0,-0.5 2.9,-6.1 6.5,-12.5 3.6,-6.4 6.5,-11.8 6.5,-12 0,-0.3 -3.5,-0.6 -7.7,-0.8 l -7.8,-0.3 z"
       id="path9365"
       style="fill:#000000;stroke:none;stroke-width:0.1" />
    <path
       d="m 515.3,515.8 -37.2,0.2 -0.6,3.3 c -0.2,1.7 -1.2,7.2 -2,12.2 -0.8,4.9 -1.5,9.3 -1.5,9.7 0,0.5 20,0.8 44.5,0.8 24.5,0 44.5,-0.1 44.5,-0.3 0,-0.1 -1.1,-6.1 -2.3,-13.2 l -2.3,-13 h -3 c -1.6,0 -19.6,0.1 -40.1,0.3 z"
       id="path9367"
       style="fill:#000000;stroke:none;stroke-width:0.1" />
    <path
       d="m 568.1,516.5 c 0,0.5 1,6.4 2.2,13 l 2.2,12 48.8,0.3 48.9,0.2 -6.8,-12.7 c -3.7,-7.1 -6.8,-12.9 -6.9,-13.1 -0.7,-0.9 -88.5,-0.6 -88.4,0.3 z"
       id="path9369"
       style="fill:#000000;stroke:none;stroke-width:0.1" />
    <path
       d="m 666.2,516 c 2.1,4 10.6,19.4 12.4,22.2 l 2.4,3.8 h 12.7 12.6 l -1.9,-2.3 c -1,-1.2 -2.1,-2.4 -2.4,-2.7 -0.3,-0.3 -2,-2.3 -3.9,-4.5 -1.9,-2.2 -6.1,-6.8 -9.4,-10.3 l -5.9,-6.3 -8.4,-0.2 c -4.6,-0.1 -8.3,0 -8.2,0.3 z"
       id="path9371"
       style="fill:#000000;stroke:none;stroke-width:0.1" />
    <path
       d="m 373.6,528.4 c -3.6,6.8 -6.6,12.6 -6.6,13 0,0.3 21.9,0.5 48.7,0.4 l 48.7,-0.3 1.8,-10.5 c 0.9,-5.8 2,-11.5 2.3,-12.8 L 469,516 h -44.4 -44.5 z"
       id="path9373"
       style="fill:#000000;stroke:none;stroke-width:0.1" />
    <path
       d="m 335.9,551 -13.6,0.5 -7.9,9 c -4.3,5 -9.4,10.9 -11.2,13.3 l -3.4,4.2 h 18.5 18.4 l 2.8,-5.3 c 1.6,-2.8 5,-9 7.7,-13.6 5.4,-9.4 5.3,-9.2 3.6,-8.9 -0.7,0.1 -7.4,0.5 -14.9,0.8 z"
       id="path9375"
       style="fill:#000000;stroke:none;stroke-width:0.1" />
    <path
       d="m 362.9,550.8 c -1.2,0.2 -14.9,24.6 -14.9,26.6 0,0.3 24.7,0.6 54.9,0.6 h 54.9 l 0.6,-2.8 c 0.4,-2.1 2.8,-16 3.9,-23 0.2,-1 -9.4,-1.3 -48.9,-1.5 -27,-0.1 -49.7,-0.1 -50.5,0.1 z"
       id="path9377"
       style="fill:#000000;stroke:none;stroke-width:0.1" />
    <path
       d="m 620.7,550.7 -46.7,0.3 0.5,2.3 c 0.3,1.2 1.4,7.1 2.5,13.1 1.1,6 2.1,11.1 2.3,11.3 0.2,0.2 25.2,0.2 55.5,0.1 l 55.2,-0.3 -7.1,-13 c -3.9,-7.1 -7.6,-13.3 -8.2,-13.7 -0.7,-0.4 -2.5,-0.7 -4.2,-0.5 -1.6,0.1 -24,0.3 -49.8,0.4 z"
       id="path9379"
       style="fill:#000000;stroke:none;stroke-width:0.1" />
    <path
       d="m 686,550.9 c 0,0.2 3.3,6.4 7.3,13.7 l 7.2,13.4 h 18.9 19 l -2.5,-2.8 c -1.4,-1.5 -4.5,-5 -6.9,-7.7 -2.4,-2.8 -6.9,-7.7 -9.9,-11 l -5.6,-6 h -13.7 c -7.6,0 -13.8,0.2 -13.8,0.4 z"
       id="path9381"
       style="fill:#000000;stroke:none;stroke-width:0.1" />
    <path
       d="m 472,551.7 c 0,0.5 -0.9,6.2 -2,12.8 -1.1,6.6 -2,12.3 -2,12.7 0,0.5 22.7,0.8 50.5,0.8 31.8,0 50.5,-0.4 50.5,-1 0,-0.5 -0.9,-5.6 -2,-11.2 -1.1,-5.7 -2,-11.3 -2,-12.6 V 551 h -46.5 c -25.6,0 -46.5,0.3 -46.5,0.7 z"
       id="path9383"
       style="fill:#000000;stroke:none;stroke-width:0.1" />
    <path
       d="m 285.8,593.2 c -2.9,3.5 -7.7,9.1 -10.7,12.5 l -5.3,6.3 h 24.5 24.5 l 6.6,-12.1 c 3.6,-6.6 6.6,-12.2 6.6,-12.5 0,-0.2 -9.2,-0.4 -20.4,-0.4 h -20.4 z"
       id="path9385"
       style="fill:#000000;stroke:none;stroke-width:0.1" />
    <path
       d="m 342,587.8 c 0,0.4 -2.7,5.7 -6,11.8 -3.3,6 -6,11.2 -6,11.7 0,0.4 27.6,0.6 61.2,0.5 l 61.3,-0.3 1.7,-10.5 c 0.9,-5.8 1.7,-11.3 1.7,-12.3 0.1,-1.6 -3.3,-1.7 -56.9,-1.7 -31.3,0 -57,0.4 -57,0.8 z"
       id="path9387"
       style="fill:#000000;stroke:none;stroke-width:0.1" />
    <path
       d="m 464.6,597.7 c -0.9,6 -1.6,11.6 -1.6,12.5 0,1.7 3.3,1.8 56,1.8 30.8,0 56,-0.3 56,-0.8 0,-1.3 -2,-13.5 -3.1,-19 l -1,-5.2 h -52.3 -52.3 z"
       id="path9389"
       style="fill:#000000;stroke:none;stroke-width:0.1" />
    <path
       d="m 581.3,589.2 c 0.3,1.3 1.3,6.9 2.3,12.5 l 1.7,10.3 h 61.4 61.3 l -6.5,-12.3 -6.4,-12.2 -57.2,-0.3 -57.1,-0.2 z"
       id="path9391"
       style="fill:#000000;stroke:none;stroke-width:0.1" />
    <path
       d="m 706,587.6 c 0,0.9 10.9,21.6 12.2,23.1 0.8,1 7.1,1.3 26.5,1.3 h 25.5 L 758.8,599.6 747.5,587.1 H 726.8 C 715.3,587 706,587.3 706,587.6 Z"
       id="path9393"
       style="fill:#000000;stroke:none;stroke-width:0.1" />
    <path
       d="m 261.1,626.7 c -1.4,5 -1.3,9 0.3,13.6 1.8,4.8 4.1,7.4 8.8,9.8 3.6,1.8 10.3,1.9 250.6,1.9 h 246.8 l 4.5,-2.9 c 5.7,-3.6 8.4,-8.8 8.2,-15.6 0,-2.8 -0.6,-6.2 -1.2,-7.8 L 778,623 h -257.9 -258 z"
       id="path9395"
       style="fill:#000000;stroke:none;stroke-width:0.1" />
  </g>
</svg>
