<?xml version="1.0" encoding="UTF-8" standalone="no"?>
<svg
   version="1.0"
   width="86.230682pt"
   height="95.250473pt"
   viewBox="0 0 86.230682 95.250473"
   preserveAspectRatio="xMidYMid"
   id="svg1314"
   xmlns="http://www.w3.org/2000/svg"
   xmlns:svg="http://www.w3.org/2000/svg">
  <defs
     id="defs1318" />
  <g
     id="g1881"
     transform="matrix(0.1,0,0,0.1,-7.9989708,-4.5588962)">
    <path
       d="m 247.15328,47.227683 c -14.73802,4.007707 -21.5899,8.92038 -63.08906,44.6019 -12.02312,10.342467 -27.92467,23.916957 -35.1644,30.122447 l -13.31593,11.11815 94.76288,0.38784 c 51.97091,0.25857 220.55316,0.12928 374.3974,-0.25856 l 279.89308,-0.6464 -27.79538,-23.39984 C 841.58672,96.225133 821.28963,78.901496 811.72284,70.627521 799.95828,60.414332 791.16718,54.079569 784.57386,50.718267 l -9.69607,-4.783393 -260.50095,-0.258561 c -221.19957,-0.258562 -261.5352,0 -267.22356,1.55137 z m 417.44793,19.650692 c 3.23202,2.84418 2.97346,7.627572 -0.51712,9.954627 -2.58562,1.809933 -19.26285,2.068494 -153.58568,2.068494 -134.32282,0 -151.00005,-0.258561 -153.58567,-2.068494 -3.3613,-2.327055 -3.61986,-6.464043 -0.6464,-9.825346 1.93921,-2.197775 8.40325,-2.327055 153.97351,-2.327055 139.62334,0 152.16359,0.12928 154.36136,2.197774 z m 0.90497,34.776555 c 2.7149,3.49058 2.58561,4.52483 -0.90497,8.53254 -1.80993,2.19777 -10.73031,2.32705 -153.32711,2.32705 -165.22095,0 -157.20554,0.38785 -157.20554,-7.11045 0,-7.627567 -9.95463,-7.110443 156.42985,-7.110443 h 152.42215 z"
       id="path1280"
       style="fill:#000000;stroke:none;stroke-width:0.129281" />
    <path
       d="m 132.99827,160.47773 c -8.66181,1.2928 -16.93579,4.13698 -24.04624,8.27397 -7.23973,4.26627 -17.711477,15.90155 -21.848465,24.43409 -7.49829,15.5137 -7.110448,-7.88614 -7.110448,349.31691 0,323.07289 0,328.63197 2.585618,338.45731 3.361302,13.44521 8.144694,21.71919 17.582195,31.28597 8.7911,8.7911 21.97775,16.03083 33.87159,18.48717 4.91267,1.03425 120.61905,1.42209 402.96847,1.42209 368.83832,0 396.50443,-0.12928 400.7707,-2.19778 l 4.52483,-2.19777 V 575.46932 c 0,-228.18074 -0.51712,-355.65168 -1.29281,-361.46931 -1.55137,-10.60104 -7.88613,-24.69265 -14.73802,-32.57878 -6.33476,-7.36901 -18.61644,-15.25515 -29.08819,-18.74573 l -8.53254,-2.97346 -374.26812,-0.12928 c -205.81514,-0.12928 -377.50014,0.25856 -381.37857,0.90497 z m 705.48571,59.98632 c 9.4375,4.13699 18.48717,13.18665 22.75343,22.36559 2.7149,5.81764 2.84418,8.14469 3.23203,48.35104 l 0.38784,42.40413 h 11.63528 11.50599 v 11.63528 11.63528 H 876.36328 864.728 v 11.63528 11.63527 h 11.63528 11.63527 v 10.34247 10.34247 H 876.36328 864.728 v 40.72348 40.72347 h 8.7911 c 14.73802,0 14.47945,-0.12928 14.47945,12.54025 v 10.85959 l -11.24743,-0.38784 -11.37672,-0.38785 -0.38784,11.24744 -0.38784,11.37672 h 11.76456 11.63527 v 10.98887 10.98887 H 876.36328 864.728 v 12.92809 c 0,12.54024 0.12928,13.05737 4.65411,20.16782 9.56678,14.99658 12.54024,29.99316 9.04966,45.11902 -5.4298,22.75343 -24.3048,42.01628 -46.15327,47.05824 -34.51799,8.01541 -69.81167,-14.99658 -76.27571,-49.64386 -2.7149,-14.47946 0.6464,-29.08819 9.95462,-43.05053 4.65411,-6.98116 4.7834,-7.49829 4.65411,-18.875 -0.12928,-6.46405 -0.12928,-12.15241 -0.25856,-12.79881 0,-0.51712 -5.17123,-0.90497 -11.63528,-0.90497 h -11.63527 v -10.98887 -10.98887 h 11.63527 11.63528 l 0.12928,-4.26627 c 0,-2.19778 0.12928,-7.11045 0.25857,-10.8596 l 0.25856,-6.7226 -11.63528,-0.38784 -11.63528,-0.38785 -0.38784,-10.47175 -0.38784,-10.47175 4.13698,-0.90496 c 2.19778,-0.38785 7.49829,-0.77569 11.63528,-0.77569 h 7.62757 v -40.72347 -40.72348 h -11.63528 -11.63527 v -10.34247 -10.34247 h 8.7911 c 14.73801,0 14.47945,0.12928 14.47945,-12.41096 v -10.85959 h -11.63528 -11.76455 l 0.38784,-11.37672 0.38784,-11.24744 11.37672,-0.38784 11.24743,-0.38784 v -36.71577 c 0,-22.23631 0.51713,-39.43066 1.42209,-43.56765 5.04196,-23.91696 23.78768,-37.8793 48.99745,-36.84505 7.23973,0.38784 11.76456,1.42209 17.71148,4.13699 z m -184.35452,4.13699 c 17.19436,5.94692 34.00087,21.20206 41.36988,37.75001 6.46404,14.47946 6.33476,6.98117 6.33476,247.44359 0,200.12678 -0.25856,225.7244 -2.06849,234.64478 -4.91268,23.65839 -21.20206,42.92124 -44.08478,51.84162 l -8.7911,3.36131 -212.53775,0.38784 c -141.17471,0.12928 -215.12337,-0.12928 -219.77748,-1.03425 -9.30822,-1.68065 -23.52912,-8.53254 -31.93237,-15.25514 -8.01542,-6.33476 -18.35789,-21.46062 -22.62415,-32.70806 l -3.10275,-8.27398 -0.38784,-228.82714 c -0.38784,-253.64906 -0.90496,-237.8768 8.01542,-254.68331 5.42979,-10.47175 18.35788,-23.91696 27.53682,-28.82963 7.36901,-3.87843 18.09932,-7.36901 25.59761,-8.40326 2.19778,-0.25856 99.28771,-0.51712 215.89906,-0.38784 l 212.02062,0.12928 z m -533.02503,-1.55137 6.85189,0.90496 -0.38784,11.76456 -0.38785,11.89384 -11.89384,0.38784 -11.89384,0.38785 -0.38784,-12.54025 c -0.25856,-6.7226 -0.25856,-12.41096 -0.12928,-12.54024 0.77569,-0.77569 12.54025,-0.90497 18.2286,-0.25856 z m 6.46405,62.05481 c 0.6464,15.12587 0.90496,14.8673 -12.66953,14.8673 H 103.26367 V 287.6901 275.27914 l 12.02312,0.38784 11.89384,0.38784 z m -0.38785,54.29797 c 0.51713,5.94692 0.64641,11.76456 0.12929,12.92809 -0.51713,1.55137 -3.10275,1.93921 -12.41097,1.93921 h -11.63528 v -12.92809 -12.92808 h 11.506 11.506 z m 0.64641,53.00516 v 12.28168 h -12.28168 -12.28169 v -12.28168 -12.28169 h 12.28169 12.28168 z m -0.77569,44.86046 c -0.25856,5.17123 -0.51712,10.98887 -0.51712,12.92808 v 3.61987 h -11.63528 -11.63528 v -12.92809 -12.92808 h 12.15241 12.1524 z m -0.51712,50.16098 v 12.92808 h -11.63528 -11.63528 v -12.92808 -12.92809 h 11.63528 11.63528 z m 0,47.18751 v 13.57449 h -11.63528 -11.63528 v -13.57449 -13.57449 h 11.63528 11.63528 z m 0.25856,46.79968 c 0.25856,4.91267 0.25856,10.34247 0,12.28168 l -0.38784,3.61986 h -11.63528 -11.506 v -7.49829 c 0,-4.0077 -0.38784,-9.56678 -0.77568,-12.28168 l -0.90497,-4.78339 h 12.41097 12.28168 z m -0.25856,50.93666 v 12.79881 H 114.89895 103.26367 V 632.3529 619.42481 l 11.63528,0.12928 h 11.63528 z m 1.03425,41.2406 c 0.25856,3.23202 0.12928,8.92038 -0.38785,12.54024 l -0.77568,6.85189 h -11.506 -11.506 l -0.38784,-12.41096 c -0.25856,-6.85189 -0.12928,-12.66953 0.25856,-12.92809 0.25857,-0.38784 5.81764,-0.38784 12.28169,-0.25856 l 11.63527,0.38784 z m -1.03425,55.07365 c 0,12.02312 -0.25856,13.57449 -2.06849,12.92809 -1.16353,-0.38785 -6.20549,-0.77569 -11.37672,-0.77569 h -9.4375 l -0.77569,-11.89384 c -0.38784,-6.46404 -0.51712,-12.28168 -0.12928,-12.92809 0.38784,-0.51712 5.81764,-1.03424 12.28168,-1.03424 h 11.506 z m 0.25856,45.76543 c 0.90497,16.16011 1.42209,15.5137 -12.02312,15.5137 h -11.506 V 776.63035 763.4437 h 11.506 11.506 z m -0.25856,49.12673 v 12.92808 h -11.63528 -11.63528 l -0.12928,-10.73031 c 0,-5.81764 -0.25856,-11.63528 -0.51712,-12.92808 -0.38784,-1.93922 0.90497,-2.19778 11.76456,-2.19778 h 12.1524 z m 0,50.41954 v 12.92808 h -11.63528 -11.63528 l -0.12928,-9.4375 c 0,-5.04195 -0.38784,-10.85959 -0.6464,-12.92809 l -0.64641,-3.49058 h 12.41097 12.28168 z"
       id="path1282"
       style="fill:#000000;stroke:none;stroke-width:0.129281" />
    <path
       d="m 807.71513,246.06166 c -2.32705,1.55137 -5.68835,4.91267 -7.23972,7.23973 l -2.97346,4.39555 v 164.1867 164.05743 l -5.55908,6.20548 c -10.73031,11.89384 -12.41097,25.98546 -4.91267,39.30138 11.63527,20.81422 40.72347,24.17553 56.88358,6.59333 5.17123,-5.55908 9.17894,-15.51371 9.17894,-22.62415 0,-15.64299 -15.25514,-31.02741 -30.63957,-31.02741 h -4.26627 v -9.04966 -8.92038 l 10.08391,-0.38785 9.95463,-0.38784 0.38784,-10.08391 0.38784,-9.95462 H 828.52935 818.18688 V 535.26297 524.9205 h 10.34247 10.34247 v -10.34247 -10.34247 h -10.34247 -10.34247 v -10.34247 -10.34247 h 10.34247 10.34247 v -9.56678 c 0,-10.98888 -0.12928,-11.11816 -13.18664,-11.11816 h -7.4983 v -9.69607 -9.56678 l 10.08391,-0.38784 9.95463,-0.38784 v -9.69607 -9.69607 l -9.95463,-0.38784 -10.08391,-0.38784 v -10.21319 -10.34247 h 10.34247 10.34247 V 391.1148 380.12592 h -10.34247 -10.34247 v -10.34247 -10.34247 h 10.34247 10.47175 l -0.38784,-10.73031 -0.38784,-10.60103 -9.95463,-0.38784 -10.08391,-0.38784 v -9.95463 -9.95463 l 5.81764,0.38784 c 3.23203,0.25857 7.88614,0.12928 10.34247,-0.25856 l 4.52483,-0.90496 v -9.56679 -9.69606 H 828.52935 818.18688 V 287.0437 276.70123 h 10.34247 10.34247 v -8.1447 c 0,-6.20548 -0.77568,-9.69606 -2.97346,-13.96233 -5.68835,-10.60103 -19.00428,-14.73802 -28.18323,-8.53254 z"
       id="path1284"
       style="fill:#000000;stroke:none;stroke-width:0.129281" />
    <path
       d="m 197.50943,256.79197 c -4.26627,4.39555 -4.39555,5.04196 -5.04196,16.41867 l -0.6464,11.89384 -4.91267,0.38785 c -3.87843,0.38784 -4.7834,0.90496 -4.26627,2.32705 0.38784,1.16353 0.77568,4.91268 0.77568,8.40326 v 6.33476 h 245.63366 245.63365 v -9.04966 c 0,-8.7911 -0.12928,-9.04966 -3.23202,-9.04966 -3.10274,0 -3.23202,-0.25856 -3.23202,-9.17894 0,-8.1447 -0.38785,-9.69607 -4.00771,-14.73802 -6.98117,-9.82535 -7.62757,-9.04966 -7.62757,9.04966 v 16.16011 H 430.34427 204.10275 v -16.80651 c 0,-9.30823 -0.51712,-16.80652 -1.03424,-16.80652 -0.51713,0 -3.10275,2.0685 -5.55908,4.65411 z"
       id="path1286"
       style="fill:#000000;stroke:none;stroke-width:0.129281" />
    <path
       d="m 182.77141,702.03529 c -0.38784,0.6464 -0.38784,7.11045 0.12928,14.2209 l 0.90497,12.92808 h 245.37509 245.50437 v -14.22089 -14.2209 H 429.18075 c -159.14475,0 -245.89222,0.38784 -246.40934,1.29281 z"
       id="path1302"
       style="fill:#000000;stroke:none;stroke-width:0.129281" />
    <path
       d="m 189.88186,751.03274 c 0,4.65411 9.82534,18.2286 13.18665,18.2286 0.51712,0 1.03424,-4.39555 1.03424,-9.69606 v -9.69607 h -7.11045 c -3.87842,0 -7.11044,0.51713 -7.11044,1.16353 z"
       id="path1304"
       style="fill:#000000;stroke:none;stroke-width:0.129281" />
    <path
       d="m 656.5858,759.56528 c 0,5.30051 0.51712,9.69606 1.03424,9.69606 2.97346,0 13.18665,-14.09161 13.18665,-18.09932 0,-0.77568 -2.97346,-1.29281 -7.11044,-1.29281 h -7.11045 z"
       id="path1306"
       style="fill:#000000;stroke:none;stroke-width:0.129281" />
    <path
       d="m 165.31849,974.04224 c 0,15.38442 0.12928,16.28939 3.3613,20.03854 l 3.36131,4.0077 h 45.63614 45.63615 l 3.3613,-4.0077 c 3.23203,-3.74915 3.36131,-4.65412 3.36131,-20.03854 v -16.03083 h -52.35876 -52.35875 z"
       id="path1308"
       style="fill:#000000;stroke:none;stroke-width:0.129281" />
    <path
       d="m 740.61836,972.10303 c 0,27.0197 -1.93921,25.98545 51.58307,25.98545 h 41.62844 l 5.68836,-4.26627 5.68836,-4.13698 0.12928,-15.90155 v -15.77227 h -52.35875 -52.35876 z"
       id="path1310"
       style="fill:#000000;stroke:none;stroke-width:0.129281" />
  </g>
</svg>
