<?xml version="1.0" encoding="UTF-8" standalone="no"?>
<svg
   version="1.0"
   width="24pt"
   height="24pt"
   viewBox="0 0 24 24"
   preserveAspectRatio="xMidYMid"
   id="svg1314"
   sodipodi:docname="printer_temp_chamber.svg"
   inkscape:version="1.2.2 (b0a84865, 2022-12-01)"
   inkscape:export-filename="printer_temp_chamber.svg"
   inkscape:export-xdpi="72"
   inkscape:export-ydpi="72"
   xmlns:inkscape="http://www.inkscape.org/namespaces/inkscape"
   xmlns:sodipodi="http://sodipodi.sourceforge.net/DTD/sodipodi-0.dtd"
   xmlns="http://www.w3.org/2000/svg"
   xmlns:svg="http://www.w3.org/2000/svg">
  <sodipodi:namedview
     id="namedview1188"
     pagecolor="#ffffff"
     bordercolor="#000000"
     borderopacity="0.25"
     inkscape:showpageshadow="2"
     inkscape:pageopacity="0.0"
     inkscape:pagecheckerboard="0"
     inkscape:deskcolor="#d1d1d1"
     inkscape:document-units="pt"
     showgrid="false"
     inkscape:zoom="12.145105"
     inkscape:cx="20.296242"
     inkscape:cy="15.191305"
     inkscape:window-width="1440"
     inkscape:window-height="773"
     inkscape:window-x="0"
     inkscape:window-y="25"
     inkscape:window-maximized="1"
     inkscape:current-layer="g1881" />
  <defs
     id="defs1318" />
  <g
     id="g1881"
     transform="matrix(0.1,0,0,0.1,-7.9989708,-4.5588962)"
     style="fill:#000000;fill-opacity:1">
    <path
       d="m 139.76186,63.247896 c -3.30981,0.900036 -4.84858,2.003305 -14.1683,10.016529 -2.70011,2.322672 -6.27122,5.371181 -7.89709,6.764787 l -2.99045,2.496873 21.2815,0.0871 c 11.67143,0.05807 49.53101,0.02903 84.08078,-0.05807 l 62.85734,-0.145166 -6.24218,-5.255049 c -3.42594,-2.903342 -7.98419,-6.79382 -10.13266,-8.651959 -2.64204,-2.29364 -4.61632,-3.716277 -6.09702,-4.471146 l -2.17751,-1.074237 -58.50233,-0.05807 c -49.67618,-0.05807 -58.73461,0 -60.01208,0.348401 z m 93.74891,4.413079 c 0.72583,0.638735 0.66777,1.712972 -0.11613,2.235573 -0.58067,0.406468 -4.32598,0.464535 -34.49171,0.464535 -30.16572,0 -33.91103,-0.05807 -34.4917,-0.464535 -0.75486,-0.522601 -0.81293,-1.451671 -0.14516,-2.20654 0.4355,-0.493568 1.88717,-0.522601 34.5788,-0.522601 31.35609,0 34.17233,0.02903 34.6659,0.493568 z m 0.20323,7.80999 c 0.60971,0.783901 0.58067,1.016169 -0.20323,1.916206 -0.40647,0.493567 -2.40978,0.5226 -34.43363,0.5226 -37.10471,0 -35.30464,0.0871 -35.30464,-1.596839 0,-1.71297 -2.23557,-1.596836 35.13043,-1.596836 h 34.2304 z"
       id="path1280"
       style="fill:#000000;fill-opacity:1;stroke:none;stroke-width:0.0290334" />
    <path
       d="m 114.12535,88.681171 c -1.94523,0.290332 -3.80337,0.929067 -5.40021,1.858137 -1.62587,0.958103 -3.97758,3.571111 -4.90665,5.487317 -1.68394,3.484009 -1.59684,-1.77104 -1.59684,78.448295 0,72.55451 0,73.80295 0.58067,76.00949 0.75487,3.01947 1.82911,4.87761 3.94855,7.02609 1.97427,1.97427 4.93568,3.60014 7.60675,4.15178 1.10327,0.23226 27.08818,0.31936 90.49716,0.31936 82.83234,0 89.0455,-0.029 90.0036,-0.49357 l 1.01617,-0.49356 v -79.11607 c 0,-51.24398 -0.11613,-79.87093 -0.29034,-81.17743 -0.3484,-2.380747 -1.77103,-5.545388 -3.3098,-7.316426 -1.42264,-1.654905 -4.18082,-3.425945 -6.53252,-4.209846 l -1.91621,-0.667769 -84.05174,-0.02903 c -46.2212,-0.02903 -84.77758,0.05807 -85.64859,0.203235 z m 158.43536,13.471509 c 2.11944,0.92907 4.15178,2.96141 5.10989,5.02278 0.6097,1.3065 0.63873,1.8291 0.72583,10.8585 l 0.0871,9.52296 h 2.61301 2.58397 v 2.61301 2.61301 h -2.613 -2.61301 v 2.613 2.61301 h 2.61301 2.613 v 2.32267 2.32268 h -2.613 -2.61301 v 9.14552 9.14553 h 1.97427 c 3.30981,0 3.25174,-0.029 3.25174,2.81624 v 2.43881 l -2.5259,-0.0871 -2.55494,-0.0871 -0.0871,2.52591 -0.0871,2.55494 h 2.64204 2.613 v 2.46784 2.46784 h -2.613 -2.61301 v 2.90334 c 0,2.81624 0.029,2.93237 1.0452,4.52921 2.14847,3.36788 2.81624,6.73576 2.03234,10.13266 -1.2194,5.10989 -5.45828,9.43587 -10.36493,10.56817 -7.75192,1.80007 -15.67804,-3.36788 -17.12971,-11.14883 -0.60971,-3.25175 0.14516,-6.53252 2.23557,-9.66813 1.0452,-1.56781 1.07424,-1.68394 1.0452,-4.23888 -0.029,-1.45167 -0.029,-2.72914 -0.0581,-2.87431 0,-0.11613 -1.16133,-0.20323 -2.613,-0.20323 h -2.61301 v -2.46784 -2.46784 h 2.61301 2.613 l 0.029,-0.95811 c 0,-0.49357 0.029,-1.59683 0.0581,-2.4388 l 0.0581,-1.50974 -2.61301,-0.0871 -2.613,-0.0871 -0.0871,-2.35171 -0.0871,-2.35171 0.92906,-0.20323 c 0.49357,-0.0871 1.68394,-0.1742 2.61301,-0.1742 h 1.71297 v -9.14553 -9.14552 h -2.613 -2.61301 v -2.32268 -2.32267 h 1.97427 c 3.30981,0 3.25174,0.029 3.25174,-2.78721 v -2.4388 h -2.613 -2.64204 l 0.0871,-2.55495 0.0871,-2.5259 2.55494,-0.0871 2.5259,-0.0871 v -8.24549 c 0,-4.99375 0.11614,-8.8552 0.31937,-9.78427 1.13231,-5.37118 5.34215,-8.50679 11.00367,-8.27452 1.62587,0.0871 2.64204,0.31936 3.97757,0.92907 z m -41.40165,0.92907 c 3.86145,1.33554 7.63579,4.76148 9.2907,8.47775 1.45167,3.25175 1.42263,1.56781 1.42263,55.56997 0,44.94373 -0.0581,50.69235 -0.46453,52.69565 -1.10327,5.31312 -4.76148,9.63909 -9.9004,11.6424 l -1.97427,0.75487 -47.73094,0.0871 c -31.70449,0.029 -48.31161,-0.029 -49.35681,-0.23227 -2.0904,-0.37743 -5.28408,-1.9162 -7.17125,-3.42594 -1.80008,-1.42264 -4.12275,-4.81955 -5.08085,-7.34545 l -0.6968,-1.85814 -0.0871,-51.38915 c -0.0871,-56.96357 -0.20324,-53.42149 1.80007,-57.19584 1.2194,-2.3517 4.12274,-5.37118 6.18412,-6.47445 1.6549,-0.871 4.06467,-1.6549 5.74861,-1.88717 0.49357,-0.0581 22.29767,-0.11613 48.48581,-0.0871 l 47.61481,0.029 z m -119.70478,-0.3484 1.53877,0.20323 -0.0871,2.64204 -0.0871,2.67108 -2.67107,0.0871 -2.67108,0.0871 -0.0871,-2.81625 c -0.0581,-1.50973 -0.0581,-2.7872 -0.029,-2.81624 0.17421,-0.1742 2.81625,-0.20323 4.09372,-0.0581 z m 1.45167,13.93604 c 0.14517,3.39691 0.20324,3.33884 -2.84527,3.33884 h -2.61301 v -2.75818 -2.7872 l 2.70011,0.0871 2.67107,0.0871 z m -0.0871,12.19403 c 0.11614,1.33554 0.14517,2.64204 0.029,2.90335 -0.11613,0.3484 -0.6968,0.4355 -2.78721,0.4355 h -2.61301 v -2.90335 -2.90334 h 2.58398 2.58397 z m 0.14517,11.90371 v 2.75817 h -2.75817 -2.75818 v -2.75817 -2.75818 h 2.75818 2.75817 z m -0.1742,10.07459 c -0.0581,1.16134 -0.11613,2.46784 -0.11613,2.90334 v 0.81294 h -2.61301 -2.61301 v -2.90334 -2.90334 h 2.72914 2.72914 z m -0.11613,11.26497 v 2.90334 h -2.61301 -2.61301 v -2.90334 -2.90334 h 2.61301 2.61301 z m 0,10.59719 v 3.04851 h -2.61301 -2.61301 v -3.04851 -3.04851 h 2.61301 2.61301 z m 0.0581,10.5101 c 0.0581,1.10327 0.0581,2.32268 0,2.75818 l -0.0871,0.81293 h -2.61301 -2.58398 v -1.68394 c 0,-0.90003 -0.0871,-2.14847 -0.1742,-2.75817 l -0.20323,-1.07424 h 2.78721 2.75817 z m -0.0581,11.43917 v 2.87431 h -2.61301 -2.61301 v -2.87431 -2.90334 l 2.61301,0.029 h 2.61301 z m 0.23226,9.26166 c 0.0581,0.72583 0.029,2.0033 -0.0871,2.81624 l -0.17419,1.53877 h -2.58398 -2.58397 l -0.0871,-2.78721 c -0.0581,-1.53877 -0.029,-2.84527 0.0581,-2.90334 0.0581,-0.0871 1.3065,-0.0871 2.75817,-0.0581 l 2.61301,0.0871 z m -0.23226,12.36823 c 0,2.70011 -0.0581,3.04851 -0.46454,2.90335 -0.2613,-0.0871 -1.3936,-0.1742 -2.55494,-0.1742 h -2.11944 l -0.1742,-2.67108 c -0.0871,-1.45167 -0.11613,-2.75817 -0.029,-2.90334 0.0871,-0.11613 1.3065,-0.23227 2.75817,-0.23227 h 2.58398 z m 0.0581,10.27783 c 0.20323,3.62918 0.31936,3.48401 -2.70011,3.48401 h -2.58398 v -2.99044 -2.96141 h 2.58398 2.58397 z m -0.0581,11.0327 v 2.90334 h -2.61301 -2.61301 l -0.029,-2.40977 c 0,-1.3065 -0.0581,-2.61301 -0.11613,-2.90334 -0.0871,-0.4355 0.20323,-0.49357 2.64204,-0.49357 h 2.72914 z m 0,11.32304 v 2.90334 h -2.61301 -2.61301 l -0.029,-2.11944 c 0,-1.1323 -0.0871,-2.43881 -0.14517,-2.90334 l -0.14516,-0.78391 h 2.78721 2.75817 z"
       id="path1282"
       style="fill:#000000;fill-opacity:1;stroke:none;stroke-width:0.0290334" />
    <path
       d="m 265.65076,107.90129 c -0.5226,0.34841 -1.27747,1.10327 -1.62587,1.62588 l -0.66777,0.98713 v 36.87244 36.84341 l -1.24843,1.3936 c -2.40978,2.67108 -2.78721,5.83572 -1.10327,8.82616 2.613,4.67438 9.14552,5.42925 12.7747,1.48071 1.16133,-1.24844 2.06137,-3.48401 2.06137,-5.08085 0,-3.51304 -3.42594,-6.96802 -6.88092,-6.96802 h -0.9581 v -2.03234 -2.0033 l 2.2646,-0.0871 2.23558,-0.0871 0.0871,-2.2646 0.0871,-2.23557 h -2.35171 -2.32267 v -2.32268 -2.32267 h 2.32267 2.32267 v -2.32268 -2.32267 h -2.32267 -2.32267 v -2.32267 -2.32268 h 2.32267 2.32267 v -2.14847 c 0,-2.46784 -0.029,-2.49687 -2.9614,-2.49687 h -1.68394 v -2.17751 -2.14847 l 2.2646,-0.0871 2.23558,-0.0871 v -2.17751 -2.17751 l -2.23558,-0.0871 -2.2646,-0.0871 v -2.29364 -2.32267 h 2.32267 2.32267 v -2.46784 -2.46784 h -2.32267 -2.32267 v -2.32267 -2.32268 h 2.32267 2.35171 l -0.0871,-2.40977 -0.0871,-2.38074 -2.23558,-0.0871 -2.2646,-0.0871 v -2.23557 -2.23558 l 1.3065,0.0871 c 0.72584,0.0581 1.77104,0.029 2.32267,-0.0581 l 1.01617,-0.20324 v -2.14847 -2.17751 h -2.32267 -2.32267 v -2.32267 -2.32268 h 2.32267 2.32267 v -1.82907 c 0,-1.39361 -0.17419,-2.17751 -0.66776,-3.13561 -1.27747,-2.38074 -4.26791,-3.30981 -6.32929,-1.91621 z"
       id="path1284"
       style="fill:#000000;fill-opacity:1;stroke:none;stroke-width:0.0290334" />
    <path
       d="m 128.61303,110.31107 c -0.9581,0.98713 -0.98714,1.1323 -1.1323,3.68724 l -0.14517,2.67108 -1.10327,0.0871 c -0.871,0.0871 -1.07424,0.20323 -0.9581,0.5226 0.0871,0.2613 0.1742,1.10327 0.1742,1.88717 v 1.42264 h 55.16349 55.1635 v -2.03234 c 0,-1.97428 -0.029,-2.03234 -0.72584,-2.03234 -0.6968,0 -0.72583,-0.0581 -0.72583,-2.06137 0,-1.82911 -0.0871,-2.17751 -0.90004,-3.30981 -1.56781,-2.20655 -1.71297,-2.03234 -1.71297,2.03233 v 3.62918 h -50.80849 -50.80848 v -3.77434 c 0,-2.09041 -0.11613,-3.77435 -0.23226,-3.77435 -0.11614,0 -0.69681,0.46454 -1.24844,1.04521 z"
       id="path1286"
       style="fill:#000000;fill-opacity:1;stroke:none;stroke-width:0.0290334" />
    <path
       d="m 125.30322,210.30216 c -0.0871,0.14517 -0.0871,1.59684 0.029,3.19368 l 0.20324,2.90334 h 55.10543 55.13446 v -3.19368 -3.19367 h -55.13446 c -35.74014,0 -55.22157,0.0871 -55.3377,0.29033 z"
       id="path1302"
       style="fill:#000000;fill-opacity:1;stroke:none;stroke-width:0.0290334" />
    <path
       d="m 126.90006,221.30583 c 0,1.0452 2.20654,4.09371 2.96141,4.09371 0.11613,0 0.23226,-0.98714 0.23226,-2.17751 v -2.17751 h -1.59683 c -0.87101,0 -1.59684,0.11614 -1.59684,0.26131 z"
       id="path1304"
       style="fill:#000000;fill-opacity:1;stroke:none;stroke-width:0.0290334" />
    <path
       d="m 231.7107,223.22203 c 0,1.19037 0.11613,2.17751 0.23226,2.17751 0.66777,0 2.96141,-3.16464 2.96141,-4.06468 0,-0.1742 -0.66777,-0.29034 -1.59683,-0.29034 h -1.59684 z"
       id="path1306"
       style="fill:#000000;fill-opacity:1;stroke:none;stroke-width:0.0290334" />
    <path
       d="m 121.38371,267.68327 c 0,3.45498 0.029,3.65821 0.75487,4.50018 l 0.75487,0.90004 h 10.24879 10.2488 l 0.75487,-0.90004 c 0.72584,-0.84197 0.75487,-1.0452 0.75487,-4.50018 v -3.60014 h -11.75854 -11.75853 z"
       id="path1308"
       style="fill:#000000;fill-opacity:1;stroke:none;stroke-width:0.0290334" />
    <path
       d="m 250.58242,267.24777 c 0,6.06798 -0.4355,5.83572 11.58433,5.83572 h 9.34876 l 1.27747,-0.95811 1.27747,-0.92906 0.029,-3.57112 v -3.54207 h -11.75854 -11.75853 z"
       id="path1310"
       style="fill:#000000;fill-opacity:1;stroke:none;stroke-width:0.0290334" />
  </g>
</svg>
